<svg width="20" height="19" viewBox="0 0 20 19" fill="none" xmlns="http://www.w3.org/2000/svg">
<g id="Bold Duotone/Time/Calendar Minimalistic">
<path id="Vector" d="M19.31 11.362V9.50011C19.31 8.71889 19.307 7.32643 19.295 6.70703H0.699301C0.687267 7.32643 0.690276 8.71889 0.690276 9.50011V11.362C0.690276 14.873 0.690276 16.6284 1.78103 17.7192C2.87171 18.81 4.62723 18.81 8.13812 18.81H11.8621C15.3731 18.81 17.1286 18.81 18.2192 17.7192C19.31 16.6284 19.31 14.873 19.31 11.362Z" fill="#9282FA" fill-opacity="0.4"/>
<path id="Vector_2" d="M5.28953 0.190186C5.67666 0.190186 5.99055 0.491969 5.99055 0.86429V2.22421C6.61233 2.21266 7.30931 2.21266 8.09354 2.21266H11.8323C12.6165 2.21266 13.3135 2.21266 13.9353 2.22421V0.86429C13.9353 0.491969 14.2491 0.190186 14.6363 0.190186C15.0235 0.190186 15.3374 0.491969 15.3374 0.86429V2.28391C16.6826 2.38746 17.5658 2.64174 18.2147 3.26573C18.8635 3.88972 19.1279 4.7391 19.2357 6.03284L19.3099 6.70703H0.690186V6.03284C0.797931 4.7391 1.06235 3.88972 1.7112 3.26573C2.36005 2.64174 3.24323 2.38746 4.58851 2.28391V0.86429C4.58851 0.491969 4.90241 0.190186 5.28953 0.190186Z" fill="#9282FA"/>
</g>
</svg>
