<svg width="19" height="19" viewBox="0 0 19 19" fill="none" xmlns="http://www.w3.org/2000/svg">
<g id="Bold Duotone/Time/Clock Circle">
<path id="Vector" d="M9.49994 18.81C14.6417 18.81 18.8099 14.6417 18.8099 9.5C18.8099 4.35821 14.6417 0.190002 9.49994 0.190002C4.35815 0.190002 0.189941 4.35821 0.189941 9.5C0.189941 14.6417 4.35815 18.81 9.49994 18.81Z" fill="#9282FA" fill-opacity="0.4"/>
<path id="Vector_2" fill-rule="evenodd" clip-rule="evenodd" d="M9.50001 5.07776C9.88563 5.07776 10.1983 5.39039 10.1983 5.77601V9.21073L12.3212 11.3338C12.5939 11.6065 12.5939 12.0485 12.3212 12.3212C12.0485 12.5939 11.6065 12.5939 11.3338 12.3212L9.00632 9.99369C8.8753 9.86283 8.80176 9.68518 8.80176 9.50001V5.77601C8.80176 5.39039 9.11439 5.07776 9.50001 5.07776Z" fill="#9282FA"/>
</g>
</svg>
