<svg width="21" height="21" viewBox="0 0 21 21" fill="none" xmlns="http://www.w3.org/2000/svg">
<g id="Icon">
<path id="Vector" d="M17.4132 8.6633L11.1632 14.9133C11.0762 15.0007 10.9727 15.07 10.8587 15.1174C10.7447 15.1647 10.6226 15.189 10.4992 15.189C10.3758 15.189 10.2536 15.1647 10.1397 15.1174C10.0257 15.07 9.92222 15.0007 9.83512 14.9133L3.58512 8.6633C3.409 8.48718 3.31006 8.24831 3.31006 7.99923C3.31006 7.75016 3.409 7.51129 3.58512 7.33517C3.76124 7.15905 4.00011 7.06011 4.24918 7.06011C4.49826 7.06011 4.73713 7.15905 4.91325 7.33517L10.5 12.9219L16.0867 7.33439C16.2628 7.15827 16.5017 7.05933 16.7507 7.05933C16.9998 7.05933 17.2387 7.15827 17.4148 7.33439C17.5909 7.51051 17.6899 7.74938 17.6899 7.99845C17.6899 8.24752 17.5909 8.4864 17.4148 8.66252L17.4132 8.6633Z" fill="white"/>
</g>
</svg>
